<svg 
 xmlns="http://www.w3.org/2000/svg"
 xmlns:xlink="http://www.w3.org/1999/xlink"
 width="28px" height="25px">
<path fill-rule="evenodd"  fill="rgb(127, 126, 126)"
 d="M27.198,7.184 L24.165,16.382 C24.051,16.745 23.715,16.991 23.334,16.991 L9.873,16.991 L10.325,18.894 C10.410,18.886 10.493,18.868 10.581,18.868 C10.809,18.868 11.026,18.907 11.237,18.962 L21.839,18.962 C21.845,18.962 21.850,18.966 21.856,18.966 C22.071,18.909 22.293,18.868 22.526,18.868 C23.967,18.868 25.138,20.040 25.138,21.481 C25.138,22.922 23.967,24.094 22.526,24.094 C21.085,24.094 19.913,22.922 19.913,21.481 C19.913,21.289 19.937,21.103 19.977,20.923 L13.130,20.923 C13.170,21.103 13.193,21.289 13.193,21.481 C13.193,22.922 12.021,24.094 10.581,24.094 C9.139,24.094 7.968,22.922 7.968,21.481 C7.968,20.796 8.238,20.177 8.671,19.711 L4.518,2.013 L0.996,2.013 C0.514,2.013 0.125,1.436 0.125,0.955 C0.125,0.474 0.514,-0.010 0.996,-0.010 L5.214,-0.010 C5.621,-0.010 5.974,0.554 6.064,0.950 L7.275,6.051 L26.368,6.051 C26.645,6.051 26.906,6.184 27.070,6.407 C27.234,6.631 27.282,6.919 27.198,7.184 ZM22.526,22.352 C23.007,22.352 23.397,21.961 23.397,21.481 C23.397,21.001 23.007,20.610 22.526,20.610 C22.512,20.610 22.501,20.617 22.487,20.618 C22.324,20.790 22.105,20.901 21.878,20.913 C21.744,21.067 21.655,21.262 21.655,21.481 C21.655,21.961 22.046,22.352 22.526,22.352 ZM10.581,22.352 C11.061,22.352 11.451,21.961 11.451,21.481 C11.451,21.266 11.364,21.075 11.235,20.923 L9.926,20.923 C9.796,21.075 9.709,21.266 9.709,21.481 C9.709,21.961 10.100,22.352 10.581,22.352 Z"/>
</svg>